<?xml version="1.0" encoding="utf-8"?>
<!-- Generator: Adobe Illustrator 21.0.2, SVG Export Plug-In . SVG Version: 6.00 Build 0)  -->
<svg version="1.1" id="Layer_1" xmlns="http://www.w3.org/2000/svg" xmlns:xlink="http://www.w3.org/1999/xlink" x="0px" y="0px"
	 viewBox="0 0 120 120" style="enable-background:new 0 0 120 120;" xml:space="preserve">
<style type="text/css">
	.st0{fill:none;stroke:#008D58;stroke-width:3;stroke-miterlimit:10;}
</style>
<g id="Layer_1_1_">
	<line class="st0" x1="40.1" y1="90.5" x2="79.1" y2="90.5"/>
	<circle class="st0" cx="60" cy="60" r="58.5"/>
	<line class="st0" x1="40.1" y1="31.5" x2="79.1" y2="31.5"/>
	<path class="st0" d="M71.6,87V70.5c0,0-2-2-6-6c-0.7-0.7-2.1-2-2-3.5c0-1.3,1.3-2.8,2-3.5c4.1-4.1,6-6,6-6V35"/>
	<path class="st0" d="M47.6,87V70.5c0,0,1.7-2,5.2-6c0.6-0.7,1.8-2,1.8-3.5c0-1.3-1.2-2.8-1.8-3.5c-3.6-4.1-5.3-6-5.3-6V35"/>
	<polygon class="st0" points="52.6,48.6 59.6,56.6 66.6,48.6 66.6,45.5 52.6,45.5 	"/>
	<polygon class="st0" points="66.6,82.5 59.6,74.5 52.6,82.5 52.6,85.5 66.6,85.5 	"/>
</g>
</svg>
